M48
; DRILL file {KiCad 8.0.6} date 2025-01-17T19:16:01+0100
; FORMAT={-:-/ absolute / inch / decimal}
; #@! TF.CreationDate,2025-01-17T19:16:01+01:00
; #@! TF.GenerationSoftware,Kicad,Pcbnew,8.0.6
; #@! TF.FileFunction,Plated,1,2,PTH
FMAT,2
INCH
; #@! TA.AperFunction,Plated,PTH,ComponentDrill
T1C0.0315
; #@! TA.AperFunction,Plated,PTH,ComponentDrill
T2C0.0354
; #@! TA.AperFunction,Plated,PTH,ComponentDrill
T3C0.0394
; #@! TA.AperFunction,Plated,PTH,ComponentDrill
T4C0.0398
; #@! TA.AperFunction,Plated,PTH,ComponentDrill
T5C0.0472
; #@! TA.AperFunction,Plated,PTH,ComponentDrill
T6C0.0510
; #@! TA.AperFunction,Plated,PTH,ComponentDrill
T7C0.0512
; #@! TA.AperFunction,Plated,PTH,ComponentDrill
T8C0.0630
%
G90
G05
T1
X6.2205Y-4.1929
X6.2205Y-4.2717
X6.5945Y-4.1929
X6.5945Y-4.2717
X6.7276Y-3.0677
X6.7276Y-3.1677
X6.7276Y-3.2677
X6.7276Y-3.3677
X6.7276Y-3.4677
X6.7276Y-3.5677
X6.7276Y-3.6677
X6.7276Y-3.7677
X6.7276Y-3.8677
X6.7276Y-3.9677
X6.7323Y-2.2606
X6.7323Y-2.6606
X6.9471Y-4.2323
X6.9882Y-2.2606
X6.9882Y-2.6606
X7.0258Y-4.2323
X7.0276Y-3.0677
X7.0276Y-3.1677
X7.0276Y-3.2677
X7.0276Y-3.3677
X7.0276Y-3.4677
X7.0276Y-3.5677
X7.0276Y-3.6677
X7.0276Y-3.7677
X7.0276Y-3.8677
X7.0276Y-3.9677
X7.3622Y-4.4425
X7.3622Y-4.8425
X7.5591Y-4.1929
X7.6378Y-4.1929
T2
X7.5772Y-4.6063
X7.6772Y-4.6063
T3
X6.5945Y-4.5244
X6.5945Y-4.6244
X6.5945Y-4.7244
X7.5437Y-3.0533
X7.5437Y-3.9533
X7.6437Y-3.0533
X7.6437Y-3.9533
X7.7437Y-3.0533
X7.7437Y-3.9533
X7.8437Y-3.0533
X7.8437Y-3.9533
X7.9437Y-3.0533
X7.9437Y-3.9533
X8.0437Y-3.0533
X8.0437Y-3.9533
X8.1437Y-3.0533
X8.1437Y-3.9533
X8.2437Y-3.0533
X8.2437Y-3.9533
T4
X5.8819Y-4.7165
X6.0827Y-4.7638
X7.0591Y-4.7283
X7.1063Y-4.5276
T5
X5.9055Y-3.0512
X6.1024Y-3.0512
T6
X5.0573Y-3.5672
X5.0573Y-4.0474
X5.2935Y-4.1262
X5.5297Y-3.5672
X5.5297Y-4.0474
T7
X5.1543Y-4.638
X5.2152Y-1.8898
X5.3543Y-4.638
X5.4152Y-1.8898
X6.7291Y-1.8701
X6.9291Y-1.8701
X7.8315Y-1.8701
X7.9313Y-4.6457
X8.0315Y-1.8701
X8.1313Y-4.6457
X8.3858Y-2.5559
X8.3858Y-2.7559
T8
X5.069Y-2.4938
X5.069Y-3.0238
X5.203Y-2.4938
X5.203Y-3.0238
X5.4234Y-2.4938
X5.4234Y-3.0238
X5.5574Y-2.4938
X5.5574Y-3.0238
M30
