%TF.GenerationSoftware,KiCad,Pcbnew,8.0.6*%
%TF.CreationDate,2025-01-17T19:16:01+01:00*%
%TF.ProjectId,pcb,7063622e-6b69-4636-9164-5f7063625858,rev?*%
%TF.SameCoordinates,Original*%
%TF.FileFunction,Legend,Bot*%
%TF.FilePolarity,Positive*%
%FSLAX46Y46*%
G04 Gerber Fmt 4.6, Leading zero omitted, Abs format (unit mm)*
G04 Created by KiCad (PCBNEW 8.0.6) date 2025-01-17 19:16:01*
%MOMM*%
%LPD*%
G01*
G04 APERTURE LIST*
%ADD10C,3.200000*%
%ADD11R,1.600000X1.600000*%
%ADD12C,1.600000*%
%ADD13R,2.600000X2.600000*%
%ADD14C,2.600000*%
%ADD15C,2.010000*%
%ADD16O,1.600000X1.600000*%
%ADD17R,2.108200X2.108200*%
%ADD18C,2.108200*%
%ADD19R,1.803400X1.803400*%
%ADD20C,1.803400*%
%ADD21R,2.400000X2.400000*%
%ADD22C,2.400000*%
%ADD23R,1.700000X1.700000*%
%ADD24O,1.700000X1.700000*%
%ADD25R,2.000000X2.000000*%
%ADD26O,1.600000X2.000000*%
%ADD27R,1.800000X1.800000*%
%ADD28C,1.800000*%
G04 APERTURE END LIST*
%LPC*%
D10*
%TO.C,REF\u002A\u002A*%
X216500000Y-44000000D03*
%TD*%
D11*
%TO.C,C4*%
X192000000Y-106500000D03*
D12*
X194000000Y-106500000D03*
%TD*%
D13*
%TO.C,J4*%
X213000000Y-70000000D03*
D14*
X213000000Y-64920000D03*
%TD*%
D10*
%TO.C,REF\u002A\u002A*%
X123500000Y-121500000D03*
%TD*%
D13*
%TO.C,J1*%
X137545000Y-48000000D03*
D14*
X132465000Y-48000000D03*
%TD*%
D13*
%TO.C,J3*%
X204000000Y-47500000D03*
D14*
X198920000Y-47500000D03*
%TD*%
D10*
%TO.C,REF\u002A\u002A*%
X123500000Y-44000000D03*
%TD*%
D15*
%TO.C,F3*%
X154500000Y-121000000D03*
X149400000Y-119800000D03*
%TD*%
D12*
%TO.C,R3*%
X187000000Y-112840000D03*
D16*
X187000000Y-123000000D03*
%TD*%
D17*
%TO.C,F2*%
X137753200Y-76805000D03*
D18*
X141156800Y-76805000D03*
X141156800Y-63343000D03*
X137753200Y-63343000D03*
%TD*%
D19*
%TO.C,K1*%
X134455001Y-104805001D03*
D20*
X140455000Y-102805000D03*
X140455000Y-90605802D03*
X128455002Y-90605802D03*
X128455002Y-102805000D03*
%TD*%
D12*
%TO.C,R1*%
X171000000Y-57420000D03*
D16*
X171000000Y-67580000D03*
%TD*%
D15*
%TO.C,F4*%
X179300000Y-120100000D03*
X180500000Y-115000000D03*
%TD*%
D12*
%TO.C,C2*%
X167500000Y-106500000D03*
D11*
X167500000Y-108500000D03*
%TD*%
D21*
%TO.C,C1*%
X150000000Y-77500000D03*
D22*
X155000000Y-77500000D03*
%TD*%
D12*
%TO.C,R2*%
X177500000Y-67580000D03*
D16*
X177500000Y-57420000D03*
%TD*%
D11*
%TO.C,U2*%
X178500000Y-100780000D03*
D16*
X178500000Y-98240000D03*
X178500000Y-95700000D03*
X178500000Y-93160000D03*
X178500000Y-90620000D03*
X178500000Y-88080000D03*
X178500000Y-85540000D03*
X178500000Y-83000000D03*
X178500000Y-80460000D03*
X178500000Y-77920000D03*
X170880000Y-77920000D03*
X170880000Y-80460000D03*
X170880000Y-83000000D03*
X170880000Y-85540000D03*
X170880000Y-88080000D03*
X170880000Y-90620000D03*
X170880000Y-93160000D03*
X170880000Y-95700000D03*
X170880000Y-98240000D03*
X170880000Y-100780000D03*
%TD*%
D13*
%TO.C,J7*%
X201455000Y-118000000D03*
D14*
X206535000Y-118000000D03*
%TD*%
D23*
%TO.C,J6*%
X167500000Y-114920000D03*
D24*
X167500000Y-117460000D03*
X167500000Y-120000000D03*
%TD*%
D25*
%TO.C,U1*%
X209390000Y-77555000D03*
D26*
X206850000Y-77555000D03*
X204310000Y-77555000D03*
X201770000Y-77555000D03*
X199230000Y-77555000D03*
X196690000Y-77555000D03*
X194150000Y-77555000D03*
X191610000Y-77555000D03*
X191610000Y-100415000D03*
X194150000Y-100415000D03*
X196690000Y-100415000D03*
X199230000Y-100415000D03*
X201770000Y-100415000D03*
X204310000Y-100415000D03*
X206850000Y-100415000D03*
X209390000Y-100415000D03*
%TD*%
D27*
%TO.C,D1*%
X195000000Y-117000000D03*
D28*
X192460000Y-117000000D03*
%TD*%
D11*
%TO.C,C5*%
X158000000Y-108500000D03*
D12*
X158000000Y-106500000D03*
%TD*%
D10*
%TO.C,REF\u002A\u002A*%
X216500000Y-121500000D03*
%TD*%
D13*
%TO.C,J5*%
X130920000Y-117805000D03*
D14*
X136000000Y-117805000D03*
%TD*%
D17*
%TO.C,F1*%
X128753200Y-76805000D03*
D18*
X132156800Y-76805000D03*
X132156800Y-63343000D03*
X128753200Y-63343000D03*
%TD*%
D13*
%TO.C,J2*%
X176000000Y-47500000D03*
D14*
X170920000Y-47500000D03*
%TD*%
D11*
%TO.C,C3*%
X178455113Y-107500000D03*
D12*
X176455113Y-107500000D03*
%TD*%
%LPD*%
M02*
