%TF.GenerationSoftware,KiCad,Pcbnew,8.0.6*%
%TF.CreationDate,2025-01-17T19:16:01+01:00*%
%TF.ProjectId,pcb,7063622e-6b69-4636-9164-5f7063625858,rev?*%
%TF.SameCoordinates,Original*%
%TF.FileFunction,Copper,L1,Top*%
%TF.FilePolarity,Positive*%
%FSLAX46Y46*%
G04 Gerber Fmt 4.6, Leading zero omitted, Abs format (unit mm)*
G04 Created by KiCad (PCBNEW 8.0.6) date 2025-01-17 19:16:01*
%MOMM*%
%LPD*%
G01*
G04 APERTURE LIST*
%TA.AperFunction,ComponentPad*%
%ADD10R,1.600000X1.600000*%
%TD*%
%TA.AperFunction,ComponentPad*%
%ADD11C,1.600000*%
%TD*%
%TA.AperFunction,ComponentPad*%
%ADD12R,2.600000X2.600000*%
%TD*%
%TA.AperFunction,ComponentPad*%
%ADD13C,2.600000*%
%TD*%
%TA.AperFunction,ComponentPad*%
%ADD14C,2.010000*%
%TD*%
%TA.AperFunction,ComponentPad*%
%ADD15O,1.600000X1.600000*%
%TD*%
%TA.AperFunction,ComponentPad*%
%ADD16R,2.108200X2.108200*%
%TD*%
%TA.AperFunction,ComponentPad*%
%ADD17C,2.108200*%
%TD*%
%TA.AperFunction,ComponentPad*%
%ADD18R,1.803400X1.803400*%
%TD*%
%TA.AperFunction,ComponentPad*%
%ADD19C,1.803400*%
%TD*%
%TA.AperFunction,ComponentPad*%
%ADD20R,2.400000X2.400000*%
%TD*%
%TA.AperFunction,ComponentPad*%
%ADD21C,2.400000*%
%TD*%
%TA.AperFunction,ComponentPad*%
%ADD22R,1.700000X1.700000*%
%TD*%
%TA.AperFunction,ComponentPad*%
%ADD23O,1.700000X1.700000*%
%TD*%
%TA.AperFunction,ComponentPad*%
%ADD24R,2.000000X2.000000*%
%TD*%
%TA.AperFunction,ComponentPad*%
%ADD25O,1.600000X2.000000*%
%TD*%
%TA.AperFunction,ComponentPad*%
%ADD26R,1.800000X1.800000*%
%TD*%
%TA.AperFunction,ComponentPad*%
%ADD27C,1.800000*%
%TD*%
%TA.AperFunction,Conductor*%
%ADD28C,0.200000*%
%TD*%
%TA.AperFunction,Conductor*%
%ADD29C,4.700000*%
%TD*%
G04 APERTURE END LIST*
D10*
%TO.P,C4,1*%
%TO.N,+5VD*%
X192000000Y-106500000D03*
D11*
%TO.P,C4,2*%
%TO.N,GND*%
X194000000Y-106500000D03*
%TD*%
D12*
%TO.P,J4,1,Pin_1*%
%TO.N,+5VD*%
X213000000Y-70000000D03*
D13*
%TO.P,J4,2,Pin_2*%
%TO.N,GND*%
X213000000Y-64920000D03*
%TD*%
D12*
%TO.P,J1,1,Pin_1*%
%TO.N,Net-(J4-Pin_1)*%
X137545000Y-48000000D03*
D13*
%TO.P,J1,2,Pin_2*%
%TO.N,Net-(J4-Pin_2)*%
X132465000Y-48000000D03*
%TD*%
D12*
%TO.P,J3,1,Pin_1*%
%TO.N,GND*%
X204000000Y-47500000D03*
D13*
%TO.P,J3,2,Pin_2*%
X198920000Y-47500000D03*
%TD*%
D14*
%TO.P,F3,1*%
%TO.N,Net-(J9-Pin_3)*%
X154500000Y-121000000D03*
%TO.P,F3,2*%
%TO.N,+24V*%
X149400000Y-119800000D03*
%TD*%
D11*
%TO.P,R3,1*%
%TO.N,+5VD*%
X187000000Y-112840000D03*
D15*
%TO.P,R3,2*%
%TO.N,Net-(D1-A)*%
X187000000Y-123000000D03*
%TD*%
D16*
%TO.P,F2,1,1*%
%TO.N,+24V after Relay*%
X137753200Y-76805000D03*
D17*
%TO.P,F2,2,2*%
X141156800Y-76805000D03*
%TO.P,F2,3,3*%
%TO.N,Net-(J4-Pin_1)*%
X141156800Y-63343000D03*
%TO.P,F2,4,4*%
X137753200Y-63343000D03*
%TD*%
D18*
%TO.P,K1,1,1*%
%TO.N,+24V*%
X134455001Y-104805001D03*
D19*
%TO.P,K1,2,2*%
%TO.N,Net-(U2-B2)*%
X140455000Y-102805000D03*
%TO.P,K1,3,3*%
%TO.N,+24V after Relay*%
X140455000Y-90605802D03*
%TO.P,K1,4,4*%
%TO.N,unconnected-(K1-Pad4)*%
X128455002Y-90605802D03*
%TO.P,K1,5,5*%
%TO.N,GND*%
X128455002Y-102805000D03*
%TD*%
D11*
%TO.P,R1,1*%
%TO.N,Net-(J7-Pin_2)*%
X171000000Y-57420000D03*
D15*
%TO.P,R1,2*%
%TO.N,Net-(U2-B1)*%
X171000000Y-67580000D03*
%TD*%
D14*
%TO.P,F4,1*%
%TO.N,Net-(J9-Pin_1)*%
X179300000Y-120100000D03*
%TO.P,F4,2*%
%TO.N,+5VD*%
X180500000Y-115000000D03*
%TD*%
D11*
%TO.P,C2,2*%
%TO.N,GND*%
X167500000Y-106500000D03*
D10*
%TO.P,C2,1*%
%TO.N,Net-(J9-Pin_1)*%
X167500000Y-108500000D03*
%TD*%
D20*
%TO.P,C1,1*%
%TO.N,+24V after Relay*%
X150000000Y-77500000D03*
D21*
%TO.P,C1,2*%
%TO.N,GND*%
X155000000Y-77500000D03*
%TD*%
D11*
%TO.P,R2,1*%
%TO.N,Net-(U2-B0)*%
X177500000Y-67580000D03*
D15*
%TO.P,R2,2*%
%TO.N,Net-(J7-Pin_1)*%
X177500000Y-57420000D03*
%TD*%
D10*
%TO.P,U2,1,A->B*%
%TO.N,+5VD*%
X178500000Y-100780000D03*
D15*
%TO.P,U2,2,A0*%
%TO.N,Net-(U1-TX)*%
X178500000Y-98240000D03*
%TO.P,U2,3,A1*%
%TO.N,Net-(U1-D4)*%
X178500000Y-95700000D03*
%TO.P,U2,4,A2*%
%TO.N,Net-(U1-MOSI{slash}D7)*%
X178500000Y-93160000D03*
%TO.P,U2,5,A3*%
%TO.N,unconnected-(U2-A3-Pad5)*%
X178500000Y-90620000D03*
%TO.P,U2,6,A4*%
%TO.N,unconnected-(U2-A4-Pad6)*%
X178500000Y-88080000D03*
%TO.P,U2,7,A5*%
%TO.N,unconnected-(U2-A5-Pad7)*%
X178500000Y-85540000D03*
%TO.P,U2,8,A6*%
%TO.N,unconnected-(U2-A6-Pad8)*%
X178500000Y-83000000D03*
%TO.P,U2,9,A7*%
%TO.N,unconnected-(U2-A7-Pad9)*%
X178500000Y-80460000D03*
%TO.P,U2,10,GND*%
%TO.N,GND*%
X178500000Y-77920000D03*
%TO.P,U2,11,B7*%
%TO.N,unconnected-(U2-B7-Pad11)*%
X170880000Y-77920000D03*
%TO.P,U2,12,B6*%
%TO.N,unconnected-(U2-B6-Pad12)*%
X170880000Y-80460000D03*
%TO.P,U2,13,B5*%
%TO.N,unconnected-(U2-B5-Pad13)*%
X170880000Y-83000000D03*
%TO.P,U2,14,B4*%
%TO.N,unconnected-(U2-B4-Pad14)*%
X170880000Y-85540000D03*
%TO.P,U2,15,B3*%
%TO.N,unconnected-(U2-B3-Pad15)*%
X170880000Y-88080000D03*
%TO.P,U2,16,B2*%
%TO.N,Net-(U2-B2)*%
X170880000Y-90620000D03*
%TO.P,U2,17,B1*%
%TO.N,Net-(U2-B1)*%
X170880000Y-93160000D03*
%TO.P,U2,18,B0*%
%TO.N,Net-(U2-B0)*%
X170880000Y-95700000D03*
%TO.P,U2,19,CE*%
%TO.N,GND*%
X170880000Y-98240000D03*
%TO.P,U2,20,VCC*%
%TO.N,+5VD*%
X170880000Y-100780000D03*
%TD*%
D12*
%TO.P,J7,1,Pin_1*%
%TO.N,GND*%
X201455000Y-118000000D03*
D13*
%TO.P,J7,2,Pin_2*%
X206535000Y-118000000D03*
%TD*%
D22*
%TO.P,J6,1,Pin_1*%
%TO.N,Net-(J9-Pin_1)*%
X167500000Y-114920000D03*
D23*
%TO.P,J6,2,Pin_2*%
%TO.N,GND*%
X167500000Y-117460000D03*
%TO.P,J6,3,Pin_3*%
%TO.N,Net-(J9-Pin_3)*%
X167500000Y-120000000D03*
%TD*%
D24*
%TO.P,U1,1,~{RST}*%
%TO.N,unconnected-(U1-~{RST}-Pad1)*%
X209390000Y-77555000D03*
D25*
%TO.P,U1,2,A0*%
%TO.N,unconnected-(U1-A0-Pad2)*%
X206850000Y-77555000D03*
%TO.P,U1,3,D0*%
%TO.N,unconnected-(U1-D0-Pad3)*%
X204310000Y-77555000D03*
%TO.P,U1,4,SCK/D5*%
%TO.N,unconnected-(U1-SCK{slash}D5-Pad4)*%
X201770000Y-77555000D03*
%TO.P,U1,5,MISO/D6*%
%TO.N,unconnected-(U1-MISO{slash}D6-Pad5)*%
X199230000Y-77555000D03*
%TO.P,U1,6,MOSI/D7*%
%TO.N,Net-(U1-MOSI{slash}D7)*%
X196690000Y-77555000D03*
%TO.P,U1,7,CS/D8*%
%TO.N,unconnected-(U1-CS{slash}D8-Pad7)*%
X194150000Y-77555000D03*
%TO.P,U1,8,3V3*%
%TO.N,unconnected-(U1-3V3-Pad8)*%
X191610000Y-77555000D03*
%TO.P,U1,9,5V*%
%TO.N,+5VD*%
X191610000Y-100415000D03*
%TO.P,U1,10,GND*%
%TO.N,GND*%
X194150000Y-100415000D03*
%TO.P,U1,11,D4*%
%TO.N,Net-(U1-D4)*%
X196690000Y-100415000D03*
%TO.P,U1,12,D3*%
%TO.N,unconnected-(U1-D3-Pad12)*%
X199230000Y-100415000D03*
%TO.P,U1,13,SDA/D2*%
%TO.N,unconnected-(U1-SDA{slash}D2-Pad13)*%
X201770000Y-100415000D03*
%TO.P,U1,14,SCL/D1*%
%TO.N,unconnected-(U1-SCL{slash}D1-Pad14)*%
X204310000Y-100415000D03*
%TO.P,U1,15,RX*%
%TO.N,unconnected-(U1-RX-Pad15)*%
X206850000Y-100415000D03*
%TO.P,U1,16,TX*%
%TO.N,Net-(U1-TX)*%
X209390000Y-100415000D03*
%TD*%
D26*
%TO.P,D1,1,K*%
%TO.N,GND*%
X195000000Y-117000000D03*
D27*
%TO.P,D1,2,A*%
%TO.N,Net-(D1-A)*%
X192460000Y-117000000D03*
%TD*%
D10*
%TO.P,C5,1*%
%TO.N,Net-(J9-Pin_3)*%
X158000000Y-108500000D03*
D11*
%TO.P,C5,2*%
%TO.N,GND*%
X158000000Y-106500000D03*
%TD*%
D12*
%TO.P,J5,1,Pin_1*%
%TO.N,+24V*%
X130920000Y-117805000D03*
D13*
%TO.P,J5,2,Pin_2*%
X136000000Y-117805000D03*
%TD*%
D16*
%TO.P,F1,1,1*%
%TO.N,+24V after Relay*%
X128753200Y-76805000D03*
D17*
%TO.P,F1,2,2*%
X132156800Y-76805000D03*
%TO.P,F1,3,3*%
%TO.N,Net-(J4-Pin_2)*%
X132156800Y-63343000D03*
%TO.P,F1,4,4*%
X128753200Y-63343000D03*
%TD*%
D12*
%TO.P,J2,1,Pin_1*%
%TO.N,Net-(J7-Pin_1)*%
X176000000Y-47500000D03*
D13*
%TO.P,J2,2,Pin_2*%
%TO.N,Net-(J7-Pin_2)*%
X170920000Y-47500000D03*
%TD*%
D10*
%TO.P,C3,1*%
%TO.N,+5VD*%
X178455113Y-107500000D03*
D11*
%TO.P,C3,2*%
%TO.N,GND*%
X176455113Y-107500000D03*
%TD*%
D28*
%TO.N,+5VD*%
X213000000Y-70000000D02*
X202489365Y-70000000D01*
X202489365Y-70000000D02*
X197790000Y-74699365D01*
X197790000Y-74699365D02*
X197790000Y-101070635D01*
X197790000Y-101070635D02*
X196860635Y-102000000D01*
X196860635Y-102000000D02*
X193195000Y-102000000D01*
X193195000Y-102000000D02*
X191610000Y-100415000D01*
X213000000Y-70000000D02*
X214500000Y-70000000D01*
%TO.N,Net-(J9-Pin_3)*%
X167500000Y-120000000D02*
X166500000Y-121000000D01*
X166500000Y-121000000D02*
X158000000Y-121000000D01*
%TO.N,Net-(J9-Pin_1)*%
X167500000Y-108500000D02*
X167500000Y-114920000D01*
X179300000Y-120100000D02*
X172680000Y-120100000D01*
X172680000Y-120100000D02*
X167500000Y-114920000D01*
%TO.N,Net-(J9-Pin_3)*%
X154500000Y-121000000D02*
X158000000Y-121000000D01*
X158000000Y-109000000D02*
X158000000Y-121000000D01*
%TO.N,Net-(J7-Pin_2)*%
X171000000Y-57420000D02*
X171000000Y-47580000D01*
X171000000Y-47580000D02*
X170920000Y-47500000D01*
%TO.N,Net-(U2-B1)*%
X170880000Y-93160000D02*
X171980000Y-92060000D01*
X171980000Y-92060000D02*
X171980000Y-68560000D01*
X171980000Y-68560000D02*
X171000000Y-67580000D01*
D29*
%TO.N,Net-(J4-Pin_1)*%
X137753200Y-63343000D02*
X137753200Y-48208200D01*
X137753200Y-48208200D02*
X137545000Y-48000000D01*
X141156800Y-63343000D02*
X137753200Y-63343000D01*
%TO.N,Net-(J4-Pin_2)*%
X132156800Y-63343000D02*
X132156800Y-48308200D01*
X132156800Y-48308200D02*
X132465000Y-48000000D01*
X128753200Y-63343000D02*
X132156800Y-63343000D01*
D28*
%TO.N,+5VD*%
X178455113Y-107000000D02*
X178455113Y-112955113D01*
X178455113Y-112955113D02*
X180500000Y-115000000D01*
X178500000Y-100780000D02*
X178500000Y-101500000D01*
X178500000Y-101500000D02*
X178455113Y-101544887D01*
X178455113Y-101544887D02*
X178455113Y-107000000D01*
X192000000Y-106500000D02*
X192000000Y-103500000D01*
X192000000Y-103500000D02*
X192000000Y-100805000D01*
%TO.N,Net-(U1-D4)*%
X178500000Y-95700000D02*
X180800000Y-95700000D01*
X194000000Y-94000000D02*
X196690000Y-96690000D01*
X180800000Y-95700000D02*
X182500000Y-94000000D01*
X196690000Y-96690000D02*
X196690000Y-100415000D01*
X182500000Y-94000000D02*
X194000000Y-94000000D01*
%TO.N,+5VD*%
X192000000Y-100805000D02*
X191610000Y-100415000D01*
X192360635Y-106500000D02*
X192000000Y-106500000D01*
X187000000Y-112840000D02*
X187660000Y-112840000D01*
X182660000Y-112840000D02*
X180500000Y-115000000D01*
X170600000Y-100500000D02*
X170880000Y-100780000D01*
X187000000Y-112840000D02*
X182660000Y-112840000D01*
X192000000Y-108500000D02*
X192000000Y-106500000D01*
X187660000Y-112840000D02*
X192000000Y-108500000D01*
X170880000Y-100780000D02*
X178500000Y-100780000D01*
%TO.N,Net-(D1-A)*%
X192460000Y-117000000D02*
X187000000Y-122460000D01*
X187000000Y-122460000D02*
X187000000Y-123000000D01*
%TO.N,Net-(J7-Pin_1)*%
X177500000Y-57420000D02*
X177500000Y-49000000D01*
X177500000Y-49000000D02*
X176000000Y-47500000D01*
%TO.N,Net-(U2-B0)*%
X176700001Y-68379999D02*
X176700001Y-89879999D01*
X176700001Y-89879999D02*
X170880000Y-95700000D01*
X177500000Y-67580000D02*
X176700001Y-68379999D01*
%TO.N,Net-(U1-MOSI{slash}D7)*%
X196690000Y-77555000D02*
X181085000Y-93160000D01*
X181085000Y-93160000D02*
X178500000Y-93160000D01*
%TD*%
%TA.AperFunction,Conductor*%
%TO.N,+24V after Relay*%
G36*
X151943039Y-72519685D02*
G01*
X151988794Y-72572489D01*
X152000000Y-72624000D01*
X152000000Y-92876000D01*
X151980315Y-92943039D01*
X151927511Y-92988794D01*
X151876000Y-93000000D01*
X120624500Y-93000000D01*
X120557461Y-92980315D01*
X120511706Y-92927511D01*
X120500500Y-92876000D01*
X120500500Y-90605796D01*
X127047996Y-90605796D01*
X127047996Y-90605807D01*
X127067185Y-90837384D01*
X127124231Y-91062656D01*
X127217577Y-91275464D01*
X127301988Y-91404663D01*
X127344677Y-91470003D01*
X127502063Y-91640970D01*
X127502066Y-91640972D01*
X127502069Y-91640975D01*
X127685434Y-91783694D01*
X127685440Y-91783698D01*
X127685443Y-91783700D01*
X127889814Y-91894301D01*
X128109602Y-91969754D01*
X128338812Y-92008002D01*
X128571192Y-92008002D01*
X128800402Y-91969754D01*
X129020190Y-91894301D01*
X129224561Y-91783700D01*
X129225105Y-91783277D01*
X129286140Y-91735771D01*
X129407941Y-91640970D01*
X129565327Y-91470003D01*
X129692427Y-91275463D01*
X129785773Y-91062656D01*
X129842818Y-90837388D01*
X129862008Y-90605802D01*
X129862008Y-90605796D01*
X139048496Y-90605796D01*
X139048496Y-90605807D01*
X139067678Y-90837301D01*
X139124704Y-91062493D01*
X139218015Y-91275220D01*
X139302584Y-91404663D01*
X139855718Y-90851529D01*
X139881016Y-90912603D01*
X139951899Y-91018687D01*
X140042115Y-91108903D01*
X140148199Y-91179786D01*
X140209271Y-91205083D01*
X139654989Y-91759364D01*
X139654990Y-91759365D01*
X139685712Y-91783277D01*
X139685718Y-91783282D01*
X139890007Y-91893837D01*
X139890017Y-91893842D01*
X140109721Y-91969266D01*
X140338853Y-92007502D01*
X140571147Y-92007502D01*
X140800278Y-91969266D01*
X141019982Y-91893842D01*
X141019987Y-91893840D01*
X141224288Y-91783277D01*
X141255008Y-91759365D01*
X141255008Y-91759364D01*
X140700728Y-91205083D01*
X140761801Y-91179786D01*
X140867885Y-91108903D01*
X140958101Y-91018687D01*
X141028984Y-90912603D01*
X141054281Y-90851530D01*
X141607414Y-91404663D01*
X141691980Y-91275227D01*
X141691985Y-91275219D01*
X141785295Y-91062493D01*
X141842321Y-90837301D01*
X141861504Y-90605807D01*
X141861504Y-90605796D01*
X141842321Y-90374302D01*
X141785295Y-90149110D01*
X141691982Y-89936378D01*
X141607414Y-89806939D01*
X141054280Y-90360072D01*
X141028984Y-90299001D01*
X140958101Y-90192917D01*
X140867885Y-90102701D01*
X140761801Y-90031818D01*
X140700727Y-90006520D01*
X141255009Y-89452238D01*
X141255009Y-89452237D01*
X141224286Y-89428325D01*
X141224281Y-89428321D01*
X141019992Y-89317766D01*
X141019982Y-89317761D01*
X140800278Y-89242337D01*
X140571147Y-89204102D01*
X140338853Y-89204102D01*
X140109721Y-89242337D01*
X139890017Y-89317761D01*
X139890007Y-89317766D01*
X139685717Y-89428322D01*
X139685706Y-89428329D01*
X139654990Y-89452236D01*
X139654990Y-89452238D01*
X140209272Y-90006520D01*
X140148199Y-90031818D01*
X140042115Y-90102701D01*
X139951899Y-90192917D01*
X139881016Y-90299001D01*
X139855718Y-90360073D01*
X139302584Y-89806939D01*
X139218016Y-89936380D01*
X139124704Y-90149110D01*
X139067678Y-90374302D01*
X139048496Y-90605796D01*
X129862008Y-90605796D01*
X129842818Y-90374216D01*
X129785773Y-90148948D01*
X129692427Y-89936141D01*
X129565327Y-89741601D01*
X129407941Y-89570634D01*
X129407936Y-89570630D01*
X129407934Y-89570628D01*
X129224569Y-89427909D01*
X129224563Y-89427905D01*
X129020190Y-89317303D01*
X129020182Y-89317300D01*
X128800404Y-89241850D01*
X128571192Y-89203602D01*
X128338812Y-89203602D01*
X128109599Y-89241850D01*
X127889821Y-89317300D01*
X127889813Y-89317303D01*
X127685440Y-89427905D01*
X127685434Y-89427909D01*
X127502069Y-89570628D01*
X127502066Y-89570631D01*
X127344678Y-89741599D01*
X127344675Y-89741603D01*
X127217577Y-89936139D01*
X127124231Y-90148947D01*
X127067185Y-90374219D01*
X127047996Y-90605796D01*
X120500500Y-90605796D01*
X120500500Y-75703055D01*
X127199100Y-75703055D01*
X127199100Y-76555000D01*
X127990732Y-76555000D01*
X127983848Y-76571620D01*
X127953100Y-76726197D01*
X127953100Y-76883803D01*
X127983848Y-77038380D01*
X127990732Y-77055000D01*
X127199100Y-77055000D01*
X127199100Y-77906944D01*
X127205501Y-77966472D01*
X127205503Y-77966479D01*
X127255745Y-78101186D01*
X127255749Y-78101193D01*
X127341909Y-78216287D01*
X127341912Y-78216290D01*
X127457006Y-78302450D01*
X127457013Y-78302454D01*
X127591720Y-78352696D01*
X127591727Y-78352698D01*
X127651255Y-78359099D01*
X127651272Y-78359100D01*
X128503200Y-78359100D01*
X128503200Y-77567467D01*
X128519820Y-77574352D01*
X128674397Y-77605100D01*
X128832003Y-77605100D01*
X128986580Y-77574352D01*
X129003200Y-77567467D01*
X129003200Y-78359100D01*
X129855128Y-78359100D01*
X129855144Y-78359099D01*
X129914672Y-78352698D01*
X129914679Y-78352696D01*
X130049386Y-78302454D01*
X130049393Y-78302450D01*
X130164487Y-78216290D01*
X130164490Y-78216287D01*
X130250650Y-78101193D01*
X130250654Y-78101186D01*
X130300896Y-77966479D01*
X130300898Y-77966472D01*
X130307299Y-77906944D01*
X130307300Y-77906927D01*
X130307300Y-77055000D01*
X129515668Y-77055000D01*
X129522552Y-77038380D01*
X129553300Y-76883803D01*
X129553300Y-76805000D01*
X130597894Y-76805000D01*
X130617087Y-77048870D01*
X130674189Y-77286718D01*
X130674193Y-77286730D01*
X130767804Y-77512729D01*
X130892323Y-77715923D01*
X131440877Y-77167369D01*
X131447761Y-77183989D01*
X131535322Y-77315034D01*
X131646766Y-77426478D01*
X131777811Y-77514039D01*
X131794429Y-77520922D01*
X131245875Y-78069475D01*
X131245875Y-78069476D01*
X131449070Y-78193995D01*
X131675069Y-78287606D01*
X131675081Y-78287610D01*
X131912929Y-78344712D01*
X132156800Y-78363905D01*
X132400670Y-78344712D01*
X132638518Y-78287610D01*
X132638530Y-78287606D01*
X132864529Y-78193995D01*
X133067722Y-78069476D01*
X133067723Y-78069475D01*
X132519170Y-77520922D01*
X132535789Y-77514039D01*
X132666834Y-77426478D01*
X132778278Y-77315034D01*
X132865839Y-77183989D01*
X132872722Y-77167370D01*
X133421275Y-77715923D01*
X133421276Y-77715922D01*
X133545795Y-77512729D01*
X133639406Y-77286730D01*
X133639410Y-77286718D01*
X133696512Y-77048870D01*
X133715705Y-76805000D01*
X133696512Y-76561129D01*
X133639410Y-76323281D01*
X133639406Y-76323269D01*
X133545795Y-76097270D01*
X133421275Y-75894075D01*
X132872722Y-76442628D01*
X132865839Y-76426011D01*
X132778278Y-76294966D01*
X132666834Y-76183522D01*
X132535789Y-76095961D01*
X132519169Y-76089077D01*
X132905191Y-75703055D01*
X136199100Y-75703055D01*
X136199100Y-76555000D01*
X136990732Y-76555000D01*
X136983848Y-76571620D01*
X136953100Y-76726197D01*
X136953100Y-76883803D01*
X136983848Y-77038380D01*
X136990732Y-77055000D01*
X136199100Y-77055000D01*
X136199100Y-77906944D01*
X136205501Y-77966472D01*
X136205503Y-77966479D01*
X136255745Y-78101186D01*
X136255749Y-78101193D01*
X136341909Y-78216287D01*
X136341912Y-78216290D01*
X136457006Y-78302450D01*
X136457013Y-78302454D01*
X136591720Y-78352696D01*
X136591727Y-78352698D01*
X136651255Y-78359099D01*
X136651272Y-78359100D01*
X137503200Y-78359100D01*
X137503200Y-77567467D01*
X137519820Y-77574352D01*
X137674397Y-77605100D01*
X137832003Y-77605100D01*
X137986580Y-77574352D01*
X138003200Y-77567467D01*
X138003200Y-78359100D01*
X138855128Y-78359100D01*
X138855144Y-78359099D01*
X138914672Y-78352698D01*
X138914679Y-78352696D01*
X139049386Y-78302454D01*
X139049393Y-78302450D01*
X139164487Y-78216290D01*
X139164490Y-78216287D01*
X139250650Y-78101193D01*
X139250654Y-78101186D01*
X139300896Y-77966479D01*
X139300898Y-77966472D01*
X139307299Y-77906944D01*
X139307300Y-77906927D01*
X139307300Y-77055000D01*
X138515668Y-77055000D01*
X138522552Y-77038380D01*
X138553300Y-76883803D01*
X138553300Y-76805000D01*
X139597894Y-76805000D01*
X139617087Y-77048870D01*
X139674189Y-77286718D01*
X139674193Y-77286730D01*
X139767804Y-77512729D01*
X139892323Y-77715923D01*
X140440877Y-77167369D01*
X140447761Y-77183989D01*
X140535322Y-77315034D01*
X140646766Y-77426478D01*
X140777811Y-77514039D01*
X140794429Y-77520922D01*
X140245875Y-78069475D01*
X140245875Y-78069476D01*
X140449070Y-78193995D01*
X140675069Y-78287606D01*
X140675081Y-78287610D01*
X140912929Y-78344712D01*
X141156800Y-78363905D01*
X141400670Y-78344712D01*
X141638518Y-78287610D01*
X141638530Y-78287606D01*
X141864529Y-78193995D01*
X142067722Y-78069476D01*
X142067723Y-78069475D01*
X141519170Y-77520922D01*
X141535789Y-77514039D01*
X141666834Y-77426478D01*
X141778278Y-77315034D01*
X141865839Y-77183989D01*
X141872722Y-77167370D01*
X142421275Y-77715923D01*
X142421276Y-77715922D01*
X142545795Y-77512729D01*
X142639406Y-77286730D01*
X142639410Y-77286718D01*
X142696512Y-77048870D01*
X142715705Y-76805000D01*
X142696512Y-76561129D01*
X142639410Y-76323281D01*
X142639406Y-76323269D01*
X142609950Y-76252155D01*
X148300000Y-76252155D01*
X148300000Y-77250000D01*
X149451518Y-77250000D01*
X149440889Y-77268409D01*
X149400000Y-77421009D01*
X149400000Y-77578991D01*
X149440889Y-77731591D01*
X149451518Y-77750000D01*
X148300000Y-77750000D01*
X148300000Y-78747844D01*
X148306401Y-78807372D01*
X148306403Y-78807379D01*
X148356645Y-78942086D01*
X148356649Y-78942093D01*
X148442809Y-79057187D01*
X148442812Y-79057190D01*
X148557906Y-79143350D01*
X148557913Y-79143354D01*
X148692620Y-79193596D01*
X148692627Y-79193598D01*
X148752155Y-79199999D01*
X148752172Y-79200000D01*
X149750000Y-79200000D01*
X149750000Y-78048482D01*
X149768409Y-78059111D01*
X149921009Y-78100000D01*
X150078991Y-78100000D01*
X150231591Y-78059111D01*
X150250000Y-78048482D01*
X150250000Y-79200000D01*
X151247828Y-79200000D01*
X151247844Y-79199999D01*
X151307372Y-79193598D01*
X151307379Y-79193596D01*
X151442086Y-79143354D01*
X151442093Y-79143350D01*
X151557187Y-79057190D01*
X151557190Y-79057187D01*
X151643350Y-78942093D01*
X151643354Y-78942086D01*
X151693596Y-78807379D01*
X151693598Y-78807372D01*
X151699999Y-78747844D01*
X151700000Y-78747827D01*
X151700000Y-77750000D01*
X150548482Y-77750000D01*
X150559111Y-77731591D01*
X150600000Y-77578991D01*
X150600000Y-77421009D01*
X150559111Y-77268409D01*
X150548482Y-77250000D01*
X151700000Y-77250000D01*
X151700000Y-76252172D01*
X151699999Y-76252155D01*
X151693598Y-76192627D01*
X151693596Y-76192620D01*
X151643354Y-76057913D01*
X151643350Y-76057906D01*
X151557190Y-75942812D01*
X151557187Y-75942809D01*
X151442093Y-75856649D01*
X151442086Y-75856645D01*
X151307379Y-75806403D01*
X151307372Y-75806401D01*
X151247844Y-75800000D01*
X150250000Y-75800000D01*
X150250000Y-76951517D01*
X150231591Y-76940889D01*
X150078991Y-76900000D01*
X149921009Y-76900000D01*
X149768409Y-76940889D01*
X149750000Y-76951517D01*
X149750000Y-75800000D01*
X148752155Y-75800000D01*
X148692627Y-75806401D01*
X148692620Y-75806403D01*
X148557913Y-75856645D01*
X148557906Y-75856649D01*
X148442812Y-75942809D01*
X148442809Y-75942812D01*
X148356649Y-76057906D01*
X148356645Y-76057913D01*
X148306403Y-76192620D01*
X148306401Y-76192627D01*
X148300000Y-76252155D01*
X142609950Y-76252155D01*
X142545795Y-76097270D01*
X142421275Y-75894075D01*
X141872722Y-76442628D01*
X141865839Y-76426011D01*
X141778278Y-76294966D01*
X141666834Y-76183522D01*
X141535789Y-76095961D01*
X141519169Y-76089077D01*
X142067723Y-75540523D01*
X141864529Y-75416004D01*
X141638530Y-75322393D01*
X141638518Y-75322389D01*
X141400670Y-75265287D01*
X141156800Y-75246094D01*
X140912929Y-75265287D01*
X140675081Y-75322389D01*
X140675069Y-75322393D01*
X140449070Y-75416004D01*
X140245875Y-75540523D01*
X140794429Y-76089077D01*
X140777811Y-76095961D01*
X140646766Y-76183522D01*
X140535322Y-76294966D01*
X140447761Y-76426011D01*
X140440877Y-76442629D01*
X139892323Y-75894075D01*
X139767804Y-76097270D01*
X139674193Y-76323269D01*
X139674189Y-76323281D01*
X139617087Y-76561129D01*
X139597894Y-76805000D01*
X138553300Y-76805000D01*
X138553300Y-76726197D01*
X138522552Y-76571620D01*
X138515668Y-76555000D01*
X139307300Y-76555000D01*
X139307300Y-75703072D01*
X139307299Y-75703055D01*
X139300898Y-75643527D01*
X139300896Y-75643520D01*
X139250654Y-75508813D01*
X139250650Y-75508806D01*
X139164490Y-75393712D01*
X139164487Y-75393709D01*
X139049393Y-75307549D01*
X139049386Y-75307545D01*
X138914679Y-75257303D01*
X138914672Y-75257301D01*
X138855144Y-75250900D01*
X138003200Y-75250900D01*
X138003200Y-76042532D01*
X137986580Y-76035648D01*
X137832003Y-76004900D01*
X137674397Y-76004900D01*
X137519820Y-76035648D01*
X137503200Y-76042532D01*
X137503200Y-75250900D01*
X136651255Y-75250900D01*
X136591727Y-75257301D01*
X136591720Y-75257303D01*
X136457013Y-75307545D01*
X136457006Y-75307549D01*
X136341912Y-75393709D01*
X136341909Y-75393712D01*
X136255749Y-75508806D01*
X136255745Y-75508813D01*
X136205503Y-75643520D01*
X136205501Y-75643527D01*
X136199100Y-75703055D01*
X132905191Y-75703055D01*
X133067723Y-75540523D01*
X132864529Y-75416004D01*
X132638530Y-75322393D01*
X132638518Y-75322389D01*
X132400670Y-75265287D01*
X132156800Y-75246094D01*
X131912929Y-75265287D01*
X131675081Y-75322389D01*
X131675069Y-75322393D01*
X131449070Y-75416004D01*
X131245875Y-75540523D01*
X131794429Y-76089077D01*
X131777811Y-76095961D01*
X131646766Y-76183522D01*
X131535322Y-76294966D01*
X131447761Y-76426011D01*
X131440877Y-76442629D01*
X130892323Y-75894075D01*
X130767804Y-76097270D01*
X130674193Y-76323269D01*
X130674189Y-76323281D01*
X130617087Y-76561129D01*
X130597894Y-76805000D01*
X129553300Y-76805000D01*
X129553300Y-76726197D01*
X129522552Y-76571620D01*
X129515668Y-76555000D01*
X130307300Y-76555000D01*
X130307300Y-75703072D01*
X130307299Y-75703055D01*
X130300898Y-75643527D01*
X130300896Y-75643520D01*
X130250654Y-75508813D01*
X130250650Y-75508806D01*
X130164490Y-75393712D01*
X130164487Y-75393709D01*
X130049393Y-75307549D01*
X130049386Y-75307545D01*
X129914679Y-75257303D01*
X129914672Y-75257301D01*
X129855144Y-75250900D01*
X129003200Y-75250900D01*
X129003200Y-76042532D01*
X128986580Y-76035648D01*
X128832003Y-76004900D01*
X128674397Y-76004900D01*
X128519820Y-76035648D01*
X128503200Y-76042532D01*
X128503200Y-75250900D01*
X127651255Y-75250900D01*
X127591727Y-75257301D01*
X127591720Y-75257303D01*
X127457013Y-75307545D01*
X127457006Y-75307549D01*
X127341912Y-75393709D01*
X127341909Y-75393712D01*
X127255749Y-75508806D01*
X127255745Y-75508813D01*
X127205503Y-75643520D01*
X127205501Y-75643527D01*
X127199100Y-75703055D01*
X120500500Y-75703055D01*
X120500500Y-72624000D01*
X120520185Y-72556961D01*
X120572989Y-72511206D01*
X120624500Y-72500000D01*
X151876000Y-72500000D01*
X151943039Y-72519685D01*
G37*
%TD.AperFunction*%
%TD*%
%TA.AperFunction,Conductor*%
%TO.N,+24V*%
G36*
X151941475Y-96520560D02*
G01*
X151988013Y-96572675D01*
X152000000Y-96625864D01*
X152000000Y-124375500D01*
X151980315Y-124442539D01*
X151927511Y-124488294D01*
X151876000Y-124499500D01*
X120624500Y-124499500D01*
X120557461Y-124479815D01*
X120511706Y-124427011D01*
X120500500Y-124375500D01*
X120500500Y-121378711D01*
X121649500Y-121378711D01*
X121649500Y-121621288D01*
X121681161Y-121861785D01*
X121743947Y-122096104D01*
X121836773Y-122320205D01*
X121836776Y-122320212D01*
X121958064Y-122530289D01*
X121958066Y-122530292D01*
X121958067Y-122530293D01*
X122105733Y-122722736D01*
X122105739Y-122722743D01*
X122277256Y-122894260D01*
X122277262Y-122894265D01*
X122469711Y-123041936D01*
X122679788Y-123163224D01*
X122903900Y-123256054D01*
X123138211Y-123318838D01*
X123318586Y-123342584D01*
X123378711Y-123350500D01*
X123378712Y-123350500D01*
X123621289Y-123350500D01*
X123669388Y-123344167D01*
X123861789Y-123318838D01*
X124096100Y-123256054D01*
X124320212Y-123163224D01*
X124530289Y-123041936D01*
X124722738Y-122894265D01*
X124894265Y-122722738D01*
X125041936Y-122530289D01*
X125163224Y-122320212D01*
X125256054Y-122096100D01*
X125318838Y-121861789D01*
X125350500Y-121621288D01*
X125350500Y-121378712D01*
X125318838Y-121138211D01*
X125256054Y-120903900D01*
X125163224Y-120679788D01*
X125041936Y-120469711D01*
X124894265Y-120277262D01*
X124894260Y-120277256D01*
X124722743Y-120105739D01*
X124722736Y-120105733D01*
X124530293Y-119958067D01*
X124530292Y-119958066D01*
X124530289Y-119958064D01*
X124320212Y-119836776D01*
X124320205Y-119836773D01*
X124231427Y-119800000D01*
X147890346Y-119800000D01*
X147908931Y-120036156D01*
X147964235Y-120266512D01*
X147964238Y-120266520D01*
X148054885Y-120485365D01*
X148054887Y-120485368D01*
X148171228Y-120675218D01*
X148912954Y-119933492D01*
X148929415Y-119994923D01*
X148995899Y-120110078D01*
X149089922Y-120204101D01*
X149205077Y-120270585D01*
X149266507Y-120287045D01*
X148524780Y-121028770D01*
X148524780Y-121028771D01*
X148714631Y-121145112D01*
X148714634Y-121145114D01*
X148933479Y-121235761D01*
X148933487Y-121235764D01*
X149163843Y-121291068D01*
X149400000Y-121309653D01*
X149636156Y-121291068D01*
X149866512Y-121235764D01*
X149866520Y-121235761D01*
X150085365Y-121145114D01*
X150085368Y-121145112D01*
X150275217Y-121028771D01*
X150275218Y-121028770D01*
X149533492Y-120287045D01*
X149594923Y-120270585D01*
X149710078Y-120204101D01*
X149804101Y-120110078D01*
X149870585Y-119994923D01*
X149887045Y-119933493D01*
X150628770Y-120675218D01*
X150628771Y-120675217D01*
X150745112Y-120485368D01*
X150745114Y-120485365D01*
X150835761Y-120266520D01*
X150835764Y-120266512D01*
X150891068Y-120036156D01*
X150909653Y-119800000D01*
X150891068Y-119563843D01*
X150835764Y-119333487D01*
X150835761Y-119333479D01*
X150745114Y-119114634D01*
X150745112Y-119114631D01*
X150628770Y-118924780D01*
X149887045Y-119666506D01*
X149870585Y-119605077D01*
X149804101Y-119489922D01*
X149710078Y-119395899D01*
X149594923Y-119329415D01*
X149533492Y-119312954D01*
X150275218Y-118571228D01*
X150085368Y-118454887D01*
X150085365Y-118454885D01*
X149866520Y-118364238D01*
X149866512Y-118364235D01*
X149636156Y-118308931D01*
X149400000Y-118290346D01*
X149163843Y-118308931D01*
X148933487Y-118364235D01*
X148933479Y-118364238D01*
X148714634Y-118454885D01*
X148714631Y-118454887D01*
X148524780Y-118571228D01*
X149266507Y-119312954D01*
X149205077Y-119329415D01*
X149089922Y-119395899D01*
X148995899Y-119489922D01*
X148929415Y-119605077D01*
X148912954Y-119666506D01*
X148171228Y-118924780D01*
X148054887Y-119114631D01*
X148054885Y-119114634D01*
X147964238Y-119333479D01*
X147964235Y-119333487D01*
X147908931Y-119563843D01*
X147890346Y-119800000D01*
X124231427Y-119800000D01*
X124096104Y-119743947D01*
X123861785Y-119681161D01*
X123621289Y-119649500D01*
X123621288Y-119649500D01*
X123378712Y-119649500D01*
X123378711Y-119649500D01*
X123138214Y-119681161D01*
X122903895Y-119743947D01*
X122679794Y-119836773D01*
X122679785Y-119836777D01*
X122469706Y-119958067D01*
X122277263Y-120105733D01*
X122277256Y-120105739D01*
X122105739Y-120277256D01*
X122105733Y-120277263D01*
X121958067Y-120469706D01*
X121836777Y-120679785D01*
X121836773Y-120679794D01*
X121743947Y-120903895D01*
X121681161Y-121138214D01*
X121649500Y-121378711D01*
X120500500Y-121378711D01*
X120500500Y-116457155D01*
X129120000Y-116457155D01*
X129120000Y-117555000D01*
X130319999Y-117555000D01*
X130294979Y-117615402D01*
X130270000Y-117740981D01*
X130270000Y-117869019D01*
X130294979Y-117994598D01*
X130319999Y-118055000D01*
X129120000Y-118055000D01*
X129120000Y-119152844D01*
X129126401Y-119212372D01*
X129126403Y-119212379D01*
X129176645Y-119347086D01*
X129176649Y-119347093D01*
X129262809Y-119462187D01*
X129262812Y-119462190D01*
X129377906Y-119548350D01*
X129377913Y-119548354D01*
X129512620Y-119598596D01*
X129512627Y-119598598D01*
X129572155Y-119604999D01*
X129572172Y-119605000D01*
X130670000Y-119605000D01*
X130670000Y-118405001D01*
X130730402Y-118430021D01*
X130855981Y-118455000D01*
X130984019Y-118455000D01*
X131109598Y-118430021D01*
X131170000Y-118405001D01*
X131170000Y-119605000D01*
X132267828Y-119605000D01*
X132267844Y-119604999D01*
X132327372Y-119598598D01*
X132327379Y-119598596D01*
X132462086Y-119548354D01*
X132462093Y-119548350D01*
X132577187Y-119462190D01*
X132577190Y-119462187D01*
X132663350Y-119347093D01*
X132663354Y-119347086D01*
X132713596Y-119212379D01*
X132713598Y-119212372D01*
X132719999Y-119152844D01*
X132720000Y-119152827D01*
X132720000Y-118055000D01*
X131520001Y-118055000D01*
X131545021Y-117994598D01*
X131570000Y-117869019D01*
X131570000Y-117804995D01*
X134194953Y-117804995D01*
X134194953Y-117805004D01*
X134215113Y-118074026D01*
X134215113Y-118074028D01*
X134275142Y-118337033D01*
X134275148Y-118337052D01*
X134373709Y-118588181D01*
X134373708Y-118588181D01*
X134508602Y-118821822D01*
X134562294Y-118889151D01*
X134562295Y-118889151D01*
X135398958Y-118052488D01*
X135423978Y-118112890D01*
X135495112Y-118219351D01*
X135585649Y-118309888D01*
X135692110Y-118381022D01*
X135752510Y-118406041D01*
X134914848Y-119243702D01*
X135097483Y-119368220D01*
X135097485Y-119368221D01*
X135340539Y-119485269D01*
X135340537Y-119485269D01*
X135598337Y-119564790D01*
X135598343Y-119564792D01*
X135865101Y-119604999D01*
X135865110Y-119605000D01*
X136134890Y-119605000D01*
X136134898Y-119604999D01*
X136401656Y-119564792D01*
X136401662Y-119564790D01*
X136659461Y-119485269D01*
X136902521Y-119368218D01*
X137085150Y-119243702D01*
X136247488Y-118406041D01*
X136307890Y-118381022D01*
X136414351Y-118309888D01*
X136504888Y-118219351D01*
X136576022Y-118112890D01*
X136601041Y-118052488D01*
X137437703Y-118889151D01*
X137437704Y-118889150D01*
X137491393Y-118821828D01*
X137491400Y-118821817D01*
X137626290Y-118588181D01*
X137724851Y-118337052D01*
X137724857Y-118337033D01*
X137784886Y-118074028D01*
X137784886Y-118074026D01*
X137805047Y-117805004D01*
X137805047Y-117804995D01*
X137784886Y-117535973D01*
X137784886Y-117535971D01*
X137724857Y-117272966D01*
X137724851Y-117272947D01*
X137626290Y-117021818D01*
X137626291Y-117021818D01*
X137491397Y-116788177D01*
X137437704Y-116720847D01*
X136601041Y-117557510D01*
X136576022Y-117497110D01*
X136504888Y-117390649D01*
X136414351Y-117300112D01*
X136307890Y-117228978D01*
X136247488Y-117203958D01*
X137085150Y-116366296D01*
X136902517Y-116241779D01*
X136902516Y-116241778D01*
X136659460Y-116124730D01*
X136659462Y-116124730D01*
X136401662Y-116045209D01*
X136401656Y-116045207D01*
X136134898Y-116005000D01*
X135865101Y-116005000D01*
X135598343Y-116045207D01*
X135598337Y-116045209D01*
X135340538Y-116124730D01*
X135097485Y-116241778D01*
X135097476Y-116241783D01*
X134914848Y-116366296D01*
X135752511Y-117203958D01*
X135692110Y-117228978D01*
X135585649Y-117300112D01*
X135495112Y-117390649D01*
X135423978Y-117497110D01*
X135398958Y-117557511D01*
X134562295Y-116720848D01*
X134508600Y-116788180D01*
X134373709Y-117021818D01*
X134275148Y-117272947D01*
X134275142Y-117272966D01*
X134215113Y-117535971D01*
X134215113Y-117535973D01*
X134194953Y-117804995D01*
X131570000Y-117804995D01*
X131570000Y-117740981D01*
X131545021Y-117615402D01*
X131520001Y-117555000D01*
X132720000Y-117555000D01*
X132720000Y-116457172D01*
X132719999Y-116457155D01*
X132713598Y-116397627D01*
X132713596Y-116397620D01*
X132663354Y-116262913D01*
X132663350Y-116262906D01*
X132577190Y-116147812D01*
X132577187Y-116147809D01*
X132462093Y-116061649D01*
X132462086Y-116061645D01*
X132327379Y-116011403D01*
X132327372Y-116011401D01*
X132267844Y-116005000D01*
X131170000Y-116005000D01*
X131170000Y-117204998D01*
X131109598Y-117179979D01*
X130984019Y-117155000D01*
X130855981Y-117155000D01*
X130730402Y-117179979D01*
X130670000Y-117204998D01*
X130670000Y-116005000D01*
X129572155Y-116005000D01*
X129512627Y-116011401D01*
X129512620Y-116011403D01*
X129377913Y-116061645D01*
X129377906Y-116061649D01*
X129262812Y-116147809D01*
X129262809Y-116147812D01*
X129176649Y-116262906D01*
X129176645Y-116262913D01*
X129126403Y-116397620D01*
X129126401Y-116397627D01*
X129120000Y-116457155D01*
X120500500Y-116457155D01*
X120500500Y-102804994D01*
X127047996Y-102804994D01*
X127047996Y-102805005D01*
X127067185Y-103036582D01*
X127124231Y-103261854D01*
X127217577Y-103474662D01*
X127264257Y-103546110D01*
X127344677Y-103669201D01*
X127502063Y-103840168D01*
X127502066Y-103840170D01*
X127502069Y-103840173D01*
X127685434Y-103982892D01*
X127685440Y-103982896D01*
X127685443Y-103982898D01*
X127889814Y-104093499D01*
X128109602Y-104168952D01*
X128338812Y-104207200D01*
X128571192Y-104207200D01*
X128800402Y-104168952D01*
X129020190Y-104093499D01*
X129224561Y-103982898D01*
X129388299Y-103855456D01*
X133053301Y-103855456D01*
X133053301Y-104555001D01*
X133857489Y-104555001D01*
X133832192Y-104616074D01*
X133807301Y-104741208D01*
X133807301Y-104868794D01*
X133832192Y-104993928D01*
X133857489Y-105055001D01*
X133053301Y-105055001D01*
X133053301Y-105754545D01*
X133059702Y-105814073D01*
X133059704Y-105814080D01*
X133109946Y-105948787D01*
X133109950Y-105948794D01*
X133196110Y-106063888D01*
X133196113Y-106063891D01*
X133311207Y-106150051D01*
X133311214Y-106150055D01*
X133445921Y-106200297D01*
X133445928Y-106200299D01*
X133505456Y-106206700D01*
X133505473Y-106206701D01*
X134205001Y-106206701D01*
X134205001Y-105402512D01*
X134266074Y-105427810D01*
X134391208Y-105452701D01*
X134518794Y-105452701D01*
X134643928Y-105427810D01*
X134705001Y-105402512D01*
X134705001Y-106206701D01*
X135404529Y-106206701D01*
X135404545Y-106206700D01*
X135464073Y-106200299D01*
X135464080Y-106200297D01*
X135598787Y-106150055D01*
X135598794Y-106150051D01*
X135713888Y-106063891D01*
X135713891Y-106063888D01*
X135800051Y-105948794D01*
X135800055Y-105948787D01*
X135850297Y-105814080D01*
X135850299Y-105814073D01*
X135856700Y-105754545D01*
X135856701Y-105754528D01*
X135856701Y-105055001D01*
X135052513Y-105055001D01*
X135077810Y-104993928D01*
X135102701Y-104868794D01*
X135102701Y-104741208D01*
X135077810Y-104616074D01*
X135052513Y-104555001D01*
X135856701Y-104555001D01*
X135856701Y-103855473D01*
X135856700Y-103855456D01*
X135850299Y-103795928D01*
X135850297Y-103795921D01*
X135800055Y-103661214D01*
X135800051Y-103661207D01*
X135713891Y-103546113D01*
X135713888Y-103546110D01*
X135598794Y-103459950D01*
X135598787Y-103459946D01*
X135464080Y-103409704D01*
X135464073Y-103409702D01*
X135404545Y-103403301D01*
X134705001Y-103403301D01*
X134705001Y-104207489D01*
X134643928Y-104182192D01*
X134518794Y-104157301D01*
X134391208Y-104157301D01*
X134266074Y-104182192D01*
X134205001Y-104207489D01*
X134205001Y-103403301D01*
X133505456Y-103403301D01*
X133445928Y-103409702D01*
X133445921Y-103409704D01*
X133311214Y-103459946D01*
X133311207Y-103459950D01*
X133196113Y-103546110D01*
X133196110Y-103546113D01*
X133109950Y-103661207D01*
X133109946Y-103661214D01*
X133059704Y-103795921D01*
X133059702Y-103795928D01*
X133053301Y-103855456D01*
X129388299Y-103855456D01*
X129407941Y-103840168D01*
X129565327Y-103669201D01*
X129692427Y-103474661D01*
X129785773Y-103261854D01*
X129842818Y-103036586D01*
X129862008Y-102805000D01*
X129862008Y-102804994D01*
X139047994Y-102804994D01*
X139047994Y-102805005D01*
X139067183Y-103036582D01*
X139124229Y-103261854D01*
X139217575Y-103474662D01*
X139264255Y-103546110D01*
X139344675Y-103669201D01*
X139502061Y-103840168D01*
X139502064Y-103840170D01*
X139502067Y-103840173D01*
X139685432Y-103982892D01*
X139685438Y-103982896D01*
X139685441Y-103982898D01*
X139889812Y-104093499D01*
X140109600Y-104168952D01*
X140338810Y-104207200D01*
X140571190Y-104207200D01*
X140800400Y-104168952D01*
X141020188Y-104093499D01*
X141224559Y-103982898D01*
X141407939Y-103840168D01*
X141565325Y-103669201D01*
X141692425Y-103474661D01*
X141785771Y-103261854D01*
X141842816Y-103036586D01*
X141862006Y-102805000D01*
X141842816Y-102573414D01*
X141785771Y-102348146D01*
X141692425Y-102135339D01*
X141565325Y-101940799D01*
X141407939Y-101769832D01*
X141407934Y-101769828D01*
X141407932Y-101769826D01*
X141224567Y-101627107D01*
X141224561Y-101627103D01*
X141020188Y-101516501D01*
X141020180Y-101516498D01*
X140800402Y-101441048D01*
X140571190Y-101402800D01*
X140338810Y-101402800D01*
X140109597Y-101441048D01*
X139889819Y-101516498D01*
X139889811Y-101516501D01*
X139685438Y-101627103D01*
X139685432Y-101627107D01*
X139502067Y-101769826D01*
X139502064Y-101769829D01*
X139344676Y-101940797D01*
X139344673Y-101940801D01*
X139217575Y-102135337D01*
X139124229Y-102348145D01*
X139067183Y-102573417D01*
X139047994Y-102804994D01*
X129862008Y-102804994D01*
X129842818Y-102573414D01*
X129785773Y-102348146D01*
X129692427Y-102135339D01*
X129565327Y-101940799D01*
X129407941Y-101769832D01*
X129407936Y-101769828D01*
X129407934Y-101769826D01*
X129224569Y-101627107D01*
X129224563Y-101627103D01*
X129020190Y-101516501D01*
X129020182Y-101516498D01*
X128800404Y-101441048D01*
X128571192Y-101402800D01*
X128338812Y-101402800D01*
X128109599Y-101441048D01*
X127889821Y-101516498D01*
X127889813Y-101516501D01*
X127685440Y-101627103D01*
X127685434Y-101627107D01*
X127502069Y-101769826D01*
X127502066Y-101769829D01*
X127344678Y-101940797D01*
X127344675Y-101940801D01*
X127217577Y-102135337D01*
X127124231Y-102348145D01*
X127067185Y-102573417D01*
X127047996Y-102804994D01*
X120500500Y-102804994D01*
X120500500Y-97092302D01*
X120520185Y-97025263D01*
X120572989Y-96979508D01*
X120622640Y-96968317D01*
X151874150Y-96501878D01*
X151941475Y-96520560D01*
G37*
%TD.AperFunction*%
%TD*%
M02*
