M48
; DRILL file {KiCad 8.0.4} date 2024-09-06T23:51:22+0200
; FORMAT={-:-/ absolute / inch / decimal}
; #@! TF.CreationDate,2024-09-06T23:51:22+02:00
; #@! TF.GenerationSoftware,Kicad,Pcbnew,8.0.4
; #@! TF.FileFunction,Plated,1,2,PTH
FMAT,2
INCH
; #@! TA.AperFunction,Plated,PTH,ComponentDrill
T1C0.0315
; #@! TA.AperFunction,Plated,PTH,ComponentDrill
T2C0.0394
; #@! TA.AperFunction,Plated,PTH,ComponentDrill
T3C0.0610
%
G90
G05
T1
X4.2126Y-2.6937
X4.2126Y-2.7937
X4.2126Y-2.8937
X4.2126Y-2.9937
X4.2126Y-3.0937
X4.2126Y-3.1937
X4.2126Y-3.2937
X4.2126Y-3.3937
X4.2126Y-3.4937
X4.2126Y-3.5937
X4.5126Y-2.6937
X4.5126Y-2.7937
X4.5126Y-2.8937
X4.5126Y-2.9937
X4.5126Y-3.0937
X4.5126Y-3.1937
X4.5126Y-3.2937
X4.5126Y-3.3937
X4.5126Y-3.4937
X4.5126Y-3.5937
T2
X3.0337Y-2.4846
X3.0337Y-2.5846
X3.0337Y-2.6846
X3.0337Y-2.7846
X3.0337Y-2.8846
X3.0337Y-2.9846
X3.0337Y-3.0846
X3.0337Y-3.1846
X3.9337Y-2.4846
X3.9337Y-2.5846
X3.9337Y-2.6846
X3.9337Y-2.7846
X3.9337Y-2.8846
X3.9337Y-2.9846
X3.9337Y-3.0846
X3.9337Y-3.1846
X4.9213Y-2.8937
X5.1181Y-2.8937
T3
X4.8386Y-3.3661
X4.8386Y-3.6811
X4.9213Y-2.2323
X5.0276Y-3.3661
X5.0276Y-3.6811
X5.1102Y-2.2323
X5.2165Y-3.3661
X5.2165Y-3.6811
M30
